<svg xmlns="http://www.w3.org/2000/svg" xmlns:xlink="http://www.w3.org/1999/xlink" width="119.073" height="119.196" viewBox="0 0 119.073 119.196"><defs><linearGradient id="a" x1="595.303" y1="-155.831" x2="595.303" y2="-154.591" gradientUnits="objectBoundingBox"><stop offset="0" stop-color="#4e3c4c"/><stop offset="1" stop-color="#684566"/></linearGradient><linearGradient id="b" x1="817.446" y1="-213.893" x2="817.446" y2="-212.942" xlink:href="#a"/><linearGradient id="c" x1="1343.032" y1="-351.533" x2="1343.032" y2="-350.556" xlink:href="#a"/><linearGradient id="d" x1="2079.587" y1="-544.168" x2="2079.587" y2="-543.481" xlink:href="#a"/><linearGradient id="e" x1="595.303" y1="22.38" x2="595.303" y2="23.619" xlink:href="#a"/><linearGradient id="f" x1="817.446" y1="28.172" x2="817.446" y2="29.123" xlink:href="#a"/><linearGradient id="g" x1="1343.032" y1="42.8" x2="1343.032" y2="43.776" xlink:href="#a"/><linearGradient id="h" x1="2079.587" y1="62.643" x2="2079.587" y2="63.332" xlink:href="#a"/><linearGradient id="i" x1="428.654" y1="-155.831" x2="428.654" y2="-154.591" xlink:href="#a"/><linearGradient id="j" x1="591.254" y1="-213.893" x2="591.254" y2="-212.942" xlink:href="#a"/><linearGradient id="k" x1="973.672" y1="-351.533" x2="973.672" y2="-350.556" xlink:href="#a"/><linearGradient id="l" x1="1514.999" y1="-544.763" x2="1514.999" y2="-544.075" xlink:href="#a"/><linearGradient id="m" x1="428.654" y1="22.38" x2="428.654" y2="23.619" xlink:href="#a"/><linearGradient id="n" x1="591.254" y1="28.172" x2="591.254" y2="29.123" xlink:href="#a"/><linearGradient id="o" x1="973.672" y1="42.8" x2="973.672" y2="43.776" xlink:href="#a"/><linearGradient id="p" x1="1514.999" y1="62.598" x2="1514.999" y2="63.286" xlink:href="#a"/><linearGradient id="q" x1="10.999" y1="63.666" x2="9.821" y2="63.666" xlink:href="#a"/><linearGradient id="r" x1="514.659" y1="-183.855" x2="514.659" y2="-182.615" xlink:href="#a"/><linearGradient id="s" x1="705.952" y1="-253.67" x2="705.952" y2="-252.719" xlink:href="#a"/><linearGradient id="t" x1="1159.721" y1="-418.88" x2="1159.721" y2="-417.903" xlink:href="#a"/><linearGradient id="u" x1="1795.152" y1="-650.553" x2="1795.152" y2="-649.866" xlink:href="#a"/><linearGradient id="v" x1="508.197" y1="56.998" x2="508.197" y2="58.238" xlink:href="#a"/><linearGradient id="w" x1="698.978" y1="75.147" x2="698.978" y2="76.098" xlink:href="#a"/><linearGradient id="x" x1="1150.191" y1="119.247" x2="1150.191" y2="120.224" xlink:href="#a"/><linearGradient id="y" x1="1784.065" y1="180.211" x2="1784.065" y2="180.898" xlink:href="#a"/><linearGradient id="z" x1="515.849" y1="-190.356" x2="515.849" y2="-189.117" xlink:href="#a"/><linearGradient id="aa" x1="709.493" y1="-260.69" x2="709.493" y2="-259.739" xlink:href="#a"/><linearGradient id="ab" x1="1168.37" y1="-428.069" x2="1168.37" y2="-427.092" xlink:href="#a"/><linearGradient id="ac" x1="1811.986" y1="-662.21" x2="1811.986" y2="-661.522" xlink:href="#a"/><linearGradient id="ad" x1="509.385" y1="50.497" x2="509.385" y2="51.737" xlink:href="#a"/><linearGradient id="ae" x1="702.519" y1="68.127" x2="702.519" y2="69.078" xlink:href="#a"/><linearGradient id="af" x1="1158.487" y1="110.186" x2="1158.487" y2="111.163" xlink:href="#a"/><linearGradient id="ag" x1="1799.708" y1="169.21" x2="1799.708" y2="169.899" xlink:href="#a"/><linearGradient id="ah" x1="56.023" y1="81.483" x2="54.844" y2="81.483" xlink:href="#a"/></defs><g transform="translate(119.073) rotate(90)"><rect width="119.196" height="119.073" rx="59.536" transform="translate(0 0)" fill="#f74e2e"/><g transform="translate(17.875 17.163)"><g transform="translate(11.604 11.746)"><g transform="translate(0 0)"><g transform="translate(0 44.123)"><path d="M6.147,3.075A3.074,3.074,0,1,1,3.072,0,3.074,3.074,0,0,1,6.147,3.075Z" transform="translate(0 12.108)" fill="url(#a)"/><path d="M4.476,2.236A2.238,2.238,0,1,1,2.236,0,2.239,2.239,0,0,1,4.476,2.236Z" transform="translate(6.874 6.906)" fill="url(#b)"/><path d="M2.724,1.362A1.362,1.362,0,1,1,1.362,0,1.36,1.36,0,0,1,2.724,1.362Z" transform="translate(12.518 3.011)" fill="url(#c)"/><path d="M1.759.878A.879.879,0,1,1,.878,0,.88.88,0,0,1,1.759.878Z" transform="translate(16.497 0)" fill="url(#d)"/></g><g transform="translate(0 0)"><path d="M6.147,3.075A3.074,3.074,0,1,0,3.072,6.151,3.077,3.077,0,0,0,6.147,3.075Z" transform="translate(0 0)" fill="url(#e)"/><path d="M4.476,2.24a2.238,2.238,0,1,0-2.24,2.24A2.241,2.241,0,0,0,4.476,2.24Z" transform="translate(6.874 6.874)" fill="url(#f)"/><path d="M2.724,1.362A1.362,1.362,0,1,0,1.362,2.724,1.362,1.362,0,0,0,2.724,1.362Z" transform="translate(12.518 12.521)" fill="url(#g)"/><path d="M1.759.878a.879.879,0,1,0-.881.878A.879.879,0,0,0,1.759.878Z" transform="translate(16.497 16.5)" fill="url(#h)"/></g><g transform="translate(44.415 44.124)"><path d="M0,3.075A3.074,3.074,0,1,0,3.075,0,3.074,3.074,0,0,0,0,3.075Z" transform="translate(12.107 12.107)" fill="url(#i)"/><path d="M0,2.236A2.238,2.238,0,1,0,2.24,0,2.237,2.237,0,0,0,0,2.236Z" transform="translate(6.905 6.905)" fill="url(#j)"/><path d="M0,1.362A1.363,1.363,0,1,0,1.362,0,1.36,1.36,0,0,0,0,1.362Z" transform="translate(3.01 3.01)" fill="url(#k)"/><circle cx="0.878" cy="0.878" r="0.878" transform="translate(0 0)" fill="url(#l)"/></g><g transform="translate(44.415 0)"><path d="M0,3.075A3.074,3.074,0,1,1,3.075,6.151,3.077,3.077,0,0,1,0,3.075Z" transform="translate(12.107 0)" fill="url(#m)"/><path d="M0,2.24a2.238,2.238,0,1,1,2.24,2.24A2.239,2.239,0,0,1,0,2.24Z" transform="translate(6.905 6.874)" fill="url(#n)"/><path d="M0,1.362A1.363,1.363,0,1,1,1.362,2.724,1.362,1.362,0,0,1,0,1.362Z" transform="translate(3.01 12.521)" fill="url(#o)"/><circle cx="0.878" cy="0.878" r="0.878" transform="translate(0 16.499)" fill="url(#p)"/></g></g><g transform="translate(25.558 25.5)"><path d="M0,5.641a5.639,5.639,0,1,1,5.641,5.638A5.642,5.642,0,0,1,0,5.641Z" transform="translate(0 0)" fill="url(#q)"/></g></g><g transform="translate(0 0)"><g transform="translate(0 39.759)"><circle cx="3.074" cy="3.074" r="3.074" transform="translate(0 0)" fill="url(#r)"/><circle cx="2.239" cy="2.239" r="2.239" transform="translate(9.375 0.835)" fill="url(#s)"/><path d="M2.326,2.326A1.362,1.362,0,1,1,2.326.4,1.367,1.367,0,0,1,2.326,2.326Z" transform="translate(16.997 1.712)" fill="url(#t)"/><path d="M1.5,1.5A.879.879,0,1,1,1.5.259.88.88,0,0,1,1.5,1.5Z" transform="translate(22.422 2.195)" fill="url(#u)"/></g><g transform="translate(39.76)"><path d="M5.247,5.247a3.074,3.074,0,1,0-4.347,0A3.074,3.074,0,0,0,5.247,5.247Z" transform="translate(0 0)" fill="url(#v)"/><circle cx="2.239" cy="2.239" r="2.239" transform="translate(0.836 9.373)" fill="url(#w)"/><circle cx="1.362" cy="1.362" r="1.362" transform="translate(1.713 16.995)" fill="url(#x)"/><path d="M1.5,1.5a.879.879,0,1,0-1.242,0A.875.875,0,0,0,1.5,1.5Z" transform="translate(2.196 22.421)" fill="url(#y)"/></g><g transform="translate(39.968 61.695)"><circle cx="3.074" cy="3.074" r="3.074" transform="translate(0 18.032)" fill="url(#z)"/><circle cx="2.239" cy="2.239" r="2.239" transform="translate(0.835 10.328)" fill="url(#aa)"/><path d="M.4.4A1.36,1.36,0,1,0,2.323.4,1.358,1.358,0,0,0,.4.4Z" transform="translate(1.712 4.46)" fill="url(#ab)"/><circle cx="0.878" cy="0.878" r="0.878" transform="translate(2.195 0)" fill="url(#ac)"/></g><g transform="translate(61.696 39.967)"><path d="M.9.9a3.074,3.074,0,1,1,0,4.347A3.073,3.073,0,0,1,.9.9Z" transform="translate(18.033 0)" fill="url(#ad)"/><circle cx="2.239" cy="2.239" r="2.239" transform="translate(10.328 0.835)" fill="url(#ae)"/><circle cx="1.362" cy="1.362" r="1.362" transform="translate(4.459 1.711)" fill="url(#af)"/><path d="M.259.257a.879.879,0,1,1,0,1.242A.88.88,0,0,1,.259.257Z" transform="translate(0 2.196)" fill="url(#ag)"/></g><g transform="translate(37.238 37.165)"><path d="M1.651,1.653a5.64,5.64,0,1,1,0,7.974A5.639,5.639,0,0,1,1.651,1.653Z" transform="translate(0 0)" fill="url(#ah)"/></g></g></g></g></svg>