<svg xmlns="http://www.w3.org/2000/svg" width="99.923" height="99.922" viewBox="0 0 99.923 99.922"><g transform="translate(108.345 -10.139) rotate(90)"><g transform="translate(10.139 8.423)"><g transform="translate(13.672 13.499)"><g transform="translate(0)"><g transform="translate(51.337 51.682)"><path d="M3.578,0A3.577,3.577,0,1,1,0,3.575,3.574,3.574,0,0,1,3.578,0Z" transform="translate(14.088 14.088)" fill="#fff"/><path d="M2.606,0A2.6,2.6,0,1,1,0,2.6,2.6,2.6,0,0,1,2.606,0Z" transform="translate(8.035 8.035)" fill="#fff"/><path d="M1.588,0A1.585,1.585,0,1,1,0,1.585,1.585,1.585,0,0,1,1.588,0Z" transform="translate(3.503 3.503)" fill="#fff"/><path d="M1.025,0A1.021,1.021,0,1,1,0,1.021,1.022,1.022,0,0,1,1.025,0Z" transform="translate(0 0)" fill="#fff"/></g><g transform="translate(0 51.682)"><path d="M3.575,0A3.577,3.577,0,1,0,7.153,3.575,3.574,3.574,0,0,0,3.575,0Z" transform="translate(0 14.088)" fill="#fff"/><path d="M2.6,0A2.6,2.6,0,1,0,5.208,2.6,2.6,2.6,0,0,0,2.6,0Z" transform="translate(7.998 8.035)" fill="#fff"/><path d="M1.584,0A1.585,1.585,0,1,0,3.169,1.585,1.585,1.585,0,0,0,1.584,0Z" transform="translate(14.565 3.503)" fill="#fff"/><circle cx="1.022" cy="1.022" r="1.022" transform="translate(19.195 0)" fill="#fff"/></g><g transform="translate(51.337 0)"><path d="M3.578,7.153A3.577,3.577,0,1,0,0,3.578,3.574,3.574,0,0,0,3.578,7.153Z" transform="translate(14.088)" fill="#fff"/><path d="M2.606,5.212A2.606,2.606,0,1,0,0,2.606,2.6,2.6,0,0,0,2.606,5.212Z" transform="translate(8.035 7.998)" fill="#fff"/><path d="M1.588,3.169A1.585,1.585,0,1,0,0,1.585,1.585,1.585,0,0,0,1.588,3.169Z" transform="translate(3.503 14.569)" fill="#fff"/><path d="M1.025,2.043A1.021,1.021,0,1,0,0,1.021,1.022,1.022,0,0,0,1.025,2.043Z" transform="translate(0 19.199)" fill="#fff"/></g><g transform="translate(0 0)"><path d="M3.575,7.153A3.577,3.577,0,1,1,7.153,3.578,3.574,3.574,0,0,1,3.575,7.153Z" transform="translate(0 0)" fill="#fff"/><path d="M2.6,5.212A2.606,2.606,0,1,1,5.208,2.606,2.6,2.6,0,0,1,2.6,5.212Z" transform="translate(7.998 7.998)" fill="#fff"/><path d="M1.584,3.169A1.585,1.585,0,1,1,3.169,1.585,1.585,1.585,0,0,1,1.584,3.169Z" transform="translate(14.565 14.569)" fill="#fff"/><circle cx="1.022" cy="1.022" r="1.022" transform="translate(19.195 19.198)" fill="#fff"/></g></g><g transform="translate(29.667 30.058)"><path d="M6.564,13.123a6.562,6.562,0,1,1,6.564-6.56A6.562,6.562,0,0,1,6.564,13.123Z" fill="#fff"/></g></g><g transform="translate(0)"><g transform="translate(0)"><g transform="translate(46.263 71.788)"><circle cx="3.577" cy="3.577" r="3.577" transform="translate(0 20.981)" fill="#fff"/><path d="M4.447.763a2.6,2.6,0,1,1-3.684,0A2.6,2.6,0,0,1,4.447.763Z" transform="translate(0.972 12.016)" fill="#fff"/><path d="M2.706.465a1.585,1.585,0,1,1-2.242,0A1.584,1.584,0,0,1,2.706.465Z" transform="translate(1.992 5.188)" fill="#fff"/><circle cx="1.022" cy="1.022" r="1.022" transform="translate(2.554 0)" fill="#fff"/></g><g transform="translate(0 46.504)"><path d="M6.105,1.048a3.576,3.576,0,1,0,0,5.058A3.576,3.576,0,0,0,6.105,1.048Z" transform="translate(0 0)" fill="#fff"/><path d="M4.447.763a2.6,2.6,0,1,0,0,3.684A2.6,2.6,0,0,0,4.447.763Z" transform="translate(10.907 0.972)" fill="#fff"/><path d="M2.706.462a1.585,1.585,0,1,0,0,2.242A1.591,1.591,0,0,0,2.706.462Z" transform="translate(19.774 1.994)" fill="#fff"/><path d="M1.747.3a1.022,1.022,0,1,0,0,1.446A1.024,1.024,0,0,0,1.747.3Z" transform="translate(26.088 2.555)" fill="#fff"/></g><g transform="translate(71.788 46.264)"><circle cx="3.577" cy="3.577" r="3.577" transform="translate(20.981 0)" fill="#fff"/><circle cx="2.605" cy="2.605" r="2.605" transform="translate(12.017 0.972)" fill="#fff"/><circle cx="1.585" cy="1.585" r="1.585" transform="translate(5.188 1.992)" fill="#fff"/><path d="M.3,1.744A1.022,1.022,0,1,0,.3.3,1.024,1.024,0,0,0,.3,1.744Z" transform="translate(0 2.556)" fill="#fff"/></g><g transform="translate(46.504 0)"><path d="M1.048,6.105a3.576,3.576,0,1,1,5.058,0A3.576,3.576,0,0,1,1.048,6.105Z" transform="translate(0 0)" fill="#fff"/><circle cx="2.605" cy="2.605" r="2.605" transform="translate(0.972 10.908)" fill="#fff"/><path d="M.465,2.7a1.585,1.585,0,1,1,2.242,0A1.584,1.584,0,0,1,.465,2.7Z" transform="translate(1.991 19.777)" fill="#fff"/><circle cx="1.022" cy="1.022" r="1.022" transform="translate(2.555 26.09)" fill="#fff"/></g></g><g transform="translate(43.244 43.469)"><path d="M1.923,11.2a6.561,6.561,0,1,1,9.278,0A6.556,6.556,0,0,1,1.923,11.2Z" transform="translate(0 0)" fill="#fff"/></g></g></g></g></svg>