<svg xmlns="http://www.w3.org/2000/svg" xmlns:xlink="http://www.w3.org/1999/xlink" width="229.641" height="119.075" viewBox="0 0 229.641 119.075"><defs><linearGradient id="a" x1="-0.271" y1="0.212" x2="1.658" y2="0.212" gradientUnits="objectBoundingBox"><stop offset="0" stop-color="#ffa700"/><stop offset="1" stop-color="#ffd689"/></linearGradient></defs><g transform="translate(229.641) rotate(90)"><path d="M63.142,229.641H55.929c-20.344,0-38.326-14.535-49.02-36.738-.1-.214-.177-.469-.255-.683a97.685,97.685,0,0,1-3.225-10.634A113.762,113.762,0,0,1,0,155.482V0H119.075V119.034c0,26.431-.916,46.861-3.432,62.553a96.044,96.044,0,0,1-3.225,10.634,7.174,7.174,0,0,1-.252.683C101.472,215.106,83.49,229.641,63.142,229.641Z" fill="url(#a)"/><g transform="translate(41.879 118.223)"><rect width="22.938" height="22.938" transform="translate(32.44 16.22) rotate(135)" fill="#f4edf7"/><rect width="13.764" height="13.764" transform="translate(25.953 45.451) rotate(135)" fill="#f4edf7"/><rect width="9.059" height="9.059" transform="translate(22.625 66.79) rotate(135)" fill="#f4edf7"/></g></g></svg>