<svg xmlns="http://www.w3.org/2000/svg" width="125.882" height="238.001" viewBox="0 0 125.882 238.001"><g transform="translate(-427.56 5759.44)"><g transform="translate(6193.44 -5355.439) rotate(-90)"><path d="M119,125.882H.009C0,125.349,0,124.844,0,124.381a125.467,125.467,0,0,1,2.4-24.44A123.8,123.8,0,0,1,20.2,56.378,124.937,124.937,0,0,1,72.474,11.238,123.878,123.878,0,0,1,119,0V125.881Z" transform="translate(166 -5765.881)" fill="#ffa700"/><path d="M119,87.8H38.006c0-.381-.006-.709-.006-1a86.678,86.678,0,0,1,23.531-59.5A87.258,87.258,0,0,1,87.254,8.39,86.232,86.232,0,0,1,119,0V87.8Z" transform="translate(166 -5727.796)" fill="#f4edf7"/><path d="M119,56.631H69V56.5q0-.186,0-.373A56.506,56.506,0,0,1,119,0V56.63Z" transform="translate(166 -5696.63)" fill="#f74e2e"/></g><g transform="translate(553.442 -5759.44) rotate(90)"><path d="M119,0H.009C0,.533,0,1.038,0,1.5a125.466,125.466,0,0,0,2.4,24.44A123.923,123.923,0,0,0,9.284,48.762,124.441,124.441,0,0,0,20.2,69.5a125.422,125.422,0,0,0,14.477,18.2,125.455,125.455,0,0,0,17.581,15.2,124.693,124.693,0,0,0,20.222,11.737,123.866,123.866,0,0,0,22.4,7.812A124.8,124.8,0,0,0,119,125.882V0Z" transform="translate(0 0)" fill="#f74e2e"/><path d="M81,0H.006C0,.382,0,.71,0,1a86.678,86.678,0,0,0,23.531,59.5A87.819,87.819,0,0,0,35.486,71.117a87.224,87.224,0,0,0,13.768,8.291A86.232,86.232,0,0,0,81,87.8V0Z" transform="translate(38 0)" fill="#f4edf7"/><path d="M50,0H0V.128Q0,.314,0,.5A56.254,56.254,0,0,0,3.855,21.056,56.315,56.315,0,0,0,14.446,38.235,56.387,56.387,0,0,0,50,56.631V0Z" transform="translate(69 0.001)" fill="#007e65"/></g></g></svg>