<svg xmlns="http://www.w3.org/2000/svg" width="449.442" height="243.083" viewBox="0 0 449.442 243.083"><g transform="translate(0 -682.478)"><g transform="translate(125.811 682.478)" style="isolation:isolate"><path d="M0,.013V59.58H60.773A59.374,59.374,0,0,0,43.331,17.45,59.372,59.372,0,0,0,0,.013Z" transform="translate(61.235 0)" fill="#ffa700"/><path d="M60.769,59.564V0H0A59.383,59.383,0,0,0,17.438,42.126,59.378,59.378,0,0,0,60.769,59.564Z" transform="translate(0 59.58)" fill="#ffa700"/></g><g transform="translate(449.442 687.56) rotate(90)"><path d="M119,0H.009C0,.533,0,1.038,0,1.5a125.466,125.466,0,0,0,2.4,24.44A123.923,123.923,0,0,0,9.284,48.762,124.441,124.441,0,0,0,20.2,69.5a125.422,125.422,0,0,0,14.477,18.2,125.455,125.455,0,0,0,17.581,15.2,124.693,124.693,0,0,0,20.222,11.737,123.866,123.866,0,0,0,22.4,7.812A124.8,124.8,0,0,0,119,125.882V0Z" transform="translate(0 0)" fill="#f74e2e"/><path d="M81,0H.006C0,.382,0,.71,0,1a86.678,86.678,0,0,0,23.531,59.5A87.819,87.819,0,0,0,35.486,71.117a87.224,87.224,0,0,0,13.768,8.291A86.232,86.232,0,0,0,81,87.8V0Z" transform="translate(38 0)" fill="#f4edf7"/><path d="M50,0H0V.128Q0,.314,0,.5A56.254,56.254,0,0,0,3.855,21.056,56.315,56.315,0,0,0,14.446,38.235,56.387,56.387,0,0,0,50,56.631V0Z" transform="translate(69 0.001)" fill="#007e65"/></g><g transform="translate(0 806.849)" style="isolation:isolate"><path d="M0,97.267H198.678V.038H99.337V0s-.886,0-2.474.109c-2.435.143-6.608.469-11.854,1.3-3.137.5-6.646,1.19-10.412,2.1-3.731.9-7.72,2.024-11.858,3.436A103.45,103.45,0,0,0,52.29,11.1,92.8,92.8,0,0,0,23.742,30.662,81,81,0,0,0,3.137,68.41,110.459,110.459,0,0,0,0,93.035Z" transform="translate(0 0)" fill="#007e65"/><g transform="translate(55.347 0.001)"><rect width="10.197" height="97.266" transform="translate(109.091)" fill="#25d468" opacity="0.603"/><rect width="10.233" height="97.266" transform="translate(87.251 0)" fill="#25d468" opacity="0.603"/><rect width="10.233" height="97.266" transform="translate(65.448 0)" fill="#25d468" opacity="0.603"/><rect width="10.233" height="97.266" transform="translate(43.644 0)" fill="#25d468" opacity="0.603"/><path d="M0,95.855H10.195V0C7.123.5,3.687,1.19,0,2.1Z" transform="translate(21.842 1.411)" fill="#25d468" opacity="0.603"/><path d="M0,90.324H10.232V0A100.052,100.052,0,0,0,0,4.157Z" transform="translate(0 6.942)" fill="#25d468" opacity="0.603"/></g></g><g transform="translate(199.56 806.56)"><g transform="translate(-1 119.001) rotate(-90)"><path d="M119,0H.009C0,.533,0,1.038,0,1.5a125.467,125.467,0,0,0,2.4,24.44A123.924,123.924,0,0,0,9.283,48.762,124.441,124.441,0,0,0,20.2,69.5a125.422,125.422,0,0,0,14.477,18.2,125.455,125.455,0,0,0,17.581,15.2,124.693,124.693,0,0,0,20.222,11.737,123.865,123.865,0,0,0,22.4,7.812A124.8,124.8,0,0,0,119,125.882V0Z" transform="translate(0 0)" fill="#ffa700"/><path d="M81,0H.006C0,.382,0,.71,0,1a86.678,86.678,0,0,0,23.531,59.5A87.819,87.819,0,0,0,35.486,71.117a87.223,87.223,0,0,0,13.768,8.291A86.232,86.232,0,0,0,81,87.8V0Z" transform="translate(38 0)" fill="#f4edf7"/><path d="M50,0H0V.128Q0,.314,0,.5A56.254,56.254,0,0,0,3.855,21.056,56.315,56.315,0,0,0,14.446,38.235,56.387,56.387,0,0,0,50,56.631V0Z" transform="translate(69 0.001)" fill="#f74e2e"/></g></g></g></svg>