<svg xmlns="http://www.w3.org/2000/svg" width="19" height="15.774" viewBox="0 0 19 15.774"><g transform="translate(-4615.952 -657.441)"><g transform="translate(4615.952 663.947)"><g transform="translate(0 0)"><path d="M272.079,436.344h16.267a1.381,1.381,0,0,0,0-2.763H272.079a1.381,1.381,0,0,0,0,2.763Z" transform="translate(-270.712 -433.581)" fill="#fff"/></g></g><g transform="translate(4625.534 657.441)"><g transform="translate(0 0)"><path d="M469.456,302.344l5.216,5.166,1.445,1.431a1.381,1.381,0,0,0,1.953-1.953l-5.216-5.166-1.445-1.431a1.381,1.381,0,1,0-1.953,1.953Z" transform="translate(-469.057 -299.992)" fill="#fff"/></g></g><g transform="translate(4625.534 663.867)"><g transform="translate(0 0)"><path d="M471.409,442.615l5.216-5.166,1.445-1.431a1.381,1.381,0,0,0-1.953-1.953L470.9,439.23l-1.445,1.431a1.381,1.381,0,0,0,1.953,1.953Z" transform="translate(-469.056 -433.665)" fill="#fff"/></g></g></g></svg>